<svg xmlns="http://www.w3.org/2000/svg" viewBox="0 0 48 48" width="48" height="48">
  <!-- Bilibili TV mascot (小电视) -->
  <path d="M15.5 8l-4.2-4.2c-.8-.8-.8-2 0-2.8.8-.8 2-.8 2.8 0L18.3 5h11.4l4.2-4c.8-.8 2-.8 2.8 0 .8.8.8 2 0 2.8L32.5 8H36c3.3 0 6 2.7 6 6v22c0 3.3-2.7 6-6 6H12c-3.3 0-6-2.7-6-6V14c0-3.3 2.7-6 6-6h3.5zM12 11c-1.7 0-3 1.3-3 3v22c0 1.7 1.3 3 3 3h24c1.7 0 3-1.3 3-3V14c0-1.7-1.3-3-3-3H12zm6 10c1.1 0 2 .9 2 2v4c0 1.1-.9 2-2 2s-2-.9-2-2v-4c0-1.1.9-2 2-2zm12 0c1.1 0 2 .9 2 2v4c0 1.1-.9 2-2 2s-2-.9-2-2v-4c0-1.1.9-2 2-2z" fill="#FFFFFF"/>
</svg>
