<svg xmlns="http://www.w3.org/2000/svg" viewBox="0 0 48 48" width="48" height="48">
  <!-- QQ Penguin silhouette -->
  <path d="M24 3c-7 0-12.5 5-12.5 14 0 2.5.5 5 1.2 7.2-2.5 3-4 6.5-3.5 8.2.3 1 1 1.5 2 1.2 1-.3 2.5-1.5 3.8-3.2 1.8 2 4.2 3.5 6.5 4.2-.8.8-2 2-2.5 3-.5 1-.2 2 .8 2.5 1.5.5 4 .8 6.2-.5 2.2 1.3 4.7 1 6.2.5 1-.5 1.3-1.5.8-2.5-.5-1-1.7-2.2-2.5-3 2.3-.7 4.7-2.2 6.5-4.2 1.3 1.7 2.8 2.9 3.8 3.2 1 .3 1.7-.2 2-1.2.5-1.7-1-5.2-3.5-8.2.7-2.2 1.2-4.7 1.2-7.2C36.5 8 31 3 24 3z" fill="#FFFFFF"/>
</svg>
