<?xml version="1.0" encoding="UTF-8" standalone="no"?>
<svg
   xmlns:dc="http://purl.org/dc/elements/1.1/"
   xmlns:cc="http://creativecommons.org/ns#"
   xmlns:rdf="http://www.w3.org/1999/02/22-rdf-syntax-ns#"
   xmlns:svg="http://www.w3.org/2000/svg"
   xmlns="http://www.w3.org/2000/svg"
   xmlns:sodipodi="http://sodipodi.sourceforge.net/DTD/sodipodi-0.dtd"
   xmlns:inkscape="http://www.inkscape.org/namespaces/inkscape"
   width="100"
   height="23"
   viewBox="0 0 75 17.249999"
   version="1.1"
   id="svg20"
   sodipodi:docname="Tmall_logo.svg"
   inkscape:version="1.0.2-2 (e86c870879, 2021-01-15)">
  <title
     id="title46">Tmall logo</title>
  <metadata
     id="metadata26">
    <rdf:RDF>
      <cc:Work
         rdf:about="">
        <dc:format>image/svg+xml</dc:format>
        <dc:type
           rdf:resource="http://purl.org/dc/dcmitype/StillImage" />
        <dc:title>Tmall logo</dc:title>
        <cc:license
           rdf:resource="http://scripts.sil.org/OFL" />
        <dc:date>15 ene 2021</dc:date>
      </cc:Work>
      <cc:License
         rdf:about="http://scripts.sil.org/OFL">
        <cc:permits
           rdf:resource="http://scripts.sil.org/pub/OFL/Reproduction" />
        <cc:permits
           rdf:resource="http://scripts.sil.org/pub/OFL/Distribution" />
        <cc:permits
           rdf:resource="http://scripts.sil.org/pub/OFL/Embedding" />
        <cc:permits
           rdf:resource="http://scripts.sil.org/pub/OFL/DerivativeWorks" />
        <cc:requires
           rdf:resource="http://scripts.sil.org/pub/OFL/Notice" />
        <cc:requires
           rdf:resource="http://scripts.sil.org/pub/OFL/Attribution" />
        <cc:requires
           rdf:resource="http://scripts.sil.org/pub/OFL/ShareAlike" />
        <cc:requires
           rdf:resource="http://scripts.sil.org/pub/OFL/DerivativeRenaming" />
        <cc:requires
           rdf:resource="http://scripts.sil.org/pub/OFL/BundlingWhenSelling" />
      </cc:License>
    </rdf:RDF>
  </metadata>
  <defs
     id="defs24" />
  <sodipodi:namedview
     pagecolor="#ffffff"
     bordercolor="#666666"
     borderopacity="1"
     objecttolerance="1"
     gridtolerance="1"
     guidetolerance="1"
     inkscape:pageopacity="0"
     inkscape:pageshadow="2"
     inkscape:window-width="1366"
     inkscape:window-height="745"
     id="namedview22"
     showgrid="false"
     units="px"
     showborder="true"
     inkscape:showpageshadow="false"
     inkscape:zoom="5.6568542"
     inkscape:cx="25.627786"
     inkscape:cy="4.9601799"
     inkscape:window-x="-8"
     inkscape:window-y="-8"
     inkscape:window-maximized="1"
     inkscape:current-layer="svg20"
     inkscape:document-rotation="0" />
  <g
     id="#ffffffff" />
  <path
     id="path2"
     style="fill:#ff0036;fill-opacity:1;stroke-width:0.137672"
     d="m 20.185397,0.07523113 c -1.028728,-0.036564 -2.066926,0.8255486 -2.031056,1.91931747 -0.01681,4.9359981 0.0086,9.8722144 -0.0124,14.8082114 0.84921,0.01272 1.696161,0.0078 2.54327,0.0078 0.004,-4.506315 -0.0062,-9.0104843 0.0065,-13.5168003 0.931195,0.7408053 1.801502,1.5963592 2.898755,2.0874184 1.71735,0.7979717 3.766696,0.820964 5.500857,0.056858 1.158201,-0.4804784 2.063829,-1.3801699 3.039164,-2.1442758 -0.0064,4.5063196 -0.002,9.0104847 -0.002,13.5167997 0.847109,0 1.694308,0.0023 2.53931,-0.004 -0.01453,-4.944311 0.01011,-9.8890164 -0.01087,-14.8313606 0.03567,-1.40114857 -1.683835,-2.37875107 -2.86516,-1.65274447 C 30.71975,1.0527381 29.793117,1.9777644 28.735804,2.7312857 27.539757,3.5504221 25.915136,3.6627225 24.611894,3.038317 23.235146,2.3059489 22.215204,1.0507568 20.882521,0.25278543 c -0.223079,-0.1123126 -0.459723,-0.169058 -0.697122,-0.177495 z m 25.198333,0.029172 c -1.127822,-0.035679 -2.271893,0.6024153 -2.726201,1.67210957 -2.183986,5.0016123 -4.328322,10.0240823 -6.497596,15.0341603 0.924887,0 1.847789,-0.0018 2.772676,0.0025 0.805071,-1.813943 1.549569,-3.655449 2.375664,-5.45882 l 0.10679,-0.06773 c 2.600194,-0.04444 5.202666,-0.004 7.802851,-0.01681 0.786156,1.841475 1.603727,3.670557 2.366763,5.522611 0.931188,0.03386 1.862252,0.01456 2.793443,0.01878 C 52.255099,11.858158 50.11344,6.9115561 47.979903,1.9628614 47.656191,1.1543052 46.989643,0.48959153 46.15304,0.23982643 c -0.249875,-0.082942 -0.509048,-0.1267428 -0.76931,-0.134975 z m -45.36155348,0.010381 c -0.002103,0.85088931 -0.002103,1.70163797 -0.002103,2.55464007 2.27227578,-0.00422 4.54669008,0.011108 6.81896608,-0.00792 0.018897,4.7095141 0.024942,9.4185228 -0.00448,14.1259218 0.8555173,0.03599 1.7109828,0.03403 2.5665063,0.0025 -0.018897,-4.711634 -0.03362,-9.423191 0.00843,-14.1348219 2.2722751,0.031754 4.5470621,0.00636 6.8214371,0.014831 0.0021,-0.8530058 0.0021,-1.70424926 0,-2.55513447 -5.404274,0 -10.8067226,0.00192 -16.20888905,0 z m 67.93108548,0.017305 c -0.845012,0.014818 -1.687998,0.010168 -2.530909,0.00593 0,4.01314407 -0.01678,8.02832737 0.0065,12.04146787 0.02311,2.357933 2.024286,4.476931 4.361724,4.612396 1.685807,0.04657 3.373905,0.004 5.061817,0.01878 v -2.552654 c -1.544975,-0.0065 -3.088188,0.0067 -4.633158,-0.0019 -1.141398,0.04653 -2.207057,-0.939804 -2.240687,-2.093371 -0.03574,-4.0087432 0.01886,-8.0197301 -0.02522,-12.03059197 z m -10.631893,0.00593 c -0.426446,0 -0.852396,0.00735 -1.27806,0.038071 0.05674,3.99197547 -0.0045,7.98422607 0.02916,11.97620487 0.0084,2.256333 1.829158,4.315497 4.046783,4.605474 1.118261,0.114312 2.246842,0.02762 3.371413,0.05092 -0.002,-0.85089 -0.0023,-1.699801 -0.0023,-2.550688 -0.983749,-0.01904 -1.969397,0.03827 -2.953141,-0.02523 -1.111963,-0.114306 -1.98646,-1.193802 -1.929698,-2.311388 -0.01042,-3.9263604 -0.002,-7.8505987 -0.004,-11.77695557 -0.426701,0.00114 -0.853597,-0.00643 -1.280039,-0.00643 z M 45.272487,2.6600314 c 0.125297,-0.0027 0.24819,0.058984 0.300603,0.1997429 0.884947,1.9282541 1.675017,3.9033039 2.545247,5.8400257 -1.889709,0.03387 -3.781108,0.00461 -5.672912,0.017303 0.800865,-1.930371 1.635223,-3.8464891 2.476028,-5.7599294 0.02483,-0.1845432 0.189946,-0.293883 0.351034,-0.2971422 z"
     sodipodi:nodetypes="ccccccccccccccccccccccccccccccccccccccccccccccccscsccccccccsscccccc" />
  <g
     id="#dd2727ff"
     transform="matrix(1.3330213,0,0,1.3052136,-422.46152,-83.465744)"
     style="fill:#00ff00;fill-opacity:1" />
</svg>
