<svg xmlns="http://www.w3.org/2000/svg" viewBox="0 0 48 48" width="48" height="48">
  <!-- Toutiao stylized news/search icon -->
  <path d="M24 4C12.95 4 4 12.95 4 24s8.95 20 20 20 20-8.95 20-20S35.05 4 24 4zm0 3c9.39 0 17 7.61 17 17s-7.61 17-17 17S7 33.39 7 24 14.61 7 24 7z" fill="#FFFFFF"/>
  <path d="M16 15h16v2.5H16zM16 21h16v2.5H16zM16 27h10v2.5H16z" fill="#FFFFFF"/>
  <circle cx="32" cy="32" r="5" fill="none" stroke="#FFFFFF" stroke-width="2.5"/>
  <line x1="35.5" y1="35.5" x2="40" y2="40" stroke="#FFFFFF" stroke-width="2.5" stroke-linecap="round"/>
</svg>
